<mxfile host="app.diagrams.net" modified="2023-07-15T02:51:51.895Z" agent="Mozilla/5.0 (Windows NT 10.0; Win64; x64) AppleWebKit/537.36 (KHTML, like Gecko) Chrome/114.0.0.0 Safari/537.36" etag="v0HPSOIucbx-RPu8eUfB" version="21.6.2" type="github">
  <diagram name="第 1 页" id="DXeD21nt4WZS5hSbEaX_">
    <mxGraphModel dx="1877" dy="549" grid="1" gridSize="10" guides="1" tooltips="1" connect="1" arrows="1" fold="1" page="1" pageScale="1" pageWidth="827" pageHeight="1169" math="0" shadow="0">
      <root>
        <mxCell id="0" />
        <mxCell id="1" parent="0" />
        <mxCell id="n5mQFx3i5jvkbVbhPfRm-2" value="预处理器" style="strokeWidth=2;html=1;shape=mxgraph.flowchart.stored_data;whiteSpace=wrap;fillColor=#dae8fc;strokeColor=#6c8ebf;fontSize=14;" vertex="1" parent="1">
          <mxGeometry x="-160" y="170" width="100" height="60" as="geometry" />
        </mxCell>
        <mxCell id="n5mQFx3i5jvkbVbhPfRm-3" value="编译器" style="strokeWidth=2;html=1;shape=mxgraph.flowchart.stored_data;whiteSpace=wrap;fillColor=#ffe6cc;strokeColor=#d79b00;fontSize=14;" vertex="1" parent="1">
          <mxGeometry x="48" y="170" width="100" height="60" as="geometry" />
        </mxCell>
        <mxCell id="n5mQFx3i5jvkbVbhPfRm-4" value="链接器" style="strokeWidth=2;html=1;shape=mxgraph.flowchart.stored_data;whiteSpace=wrap;fillColor=#f8cecc;strokeColor=#b85450;fontSize=14;" vertex="1" parent="1">
          <mxGeometry x="456" y="170" width="100" height="60" as="geometry" />
        </mxCell>
        <mxCell id="n5mQFx3i5jvkbVbhPfRm-5" value="汇编器" style="strokeWidth=2;html=1;shape=mxgraph.flowchart.stored_data;whiteSpace=wrap;fillColor=#fff2cc;strokeColor=#d6b656;fontSize=14;" vertex="1" parent="1">
          <mxGeometry x="255" y="170" width="100" height="60" as="geometry" />
        </mxCell>
        <mxCell id="n5mQFx3i5jvkbVbhPfRm-6" value="" style="endArrow=classic;html=1;rounded=0;exitX=0.93;exitY=0.5;exitDx=0;exitDy=0;exitPerimeter=0;fontSize=14;" edge="1" parent="1" source="n5mQFx3i5jvkbVbhPfRm-2" target="n5mQFx3i5jvkbVbhPfRm-3">
          <mxGeometry width="50" height="50" relative="1" as="geometry">
            <mxPoint x="150" y="310" as="sourcePoint" />
            <mxPoint x="200" y="260" as="targetPoint" />
          </mxGeometry>
        </mxCell>
        <mxCell id="n5mQFx3i5jvkbVbhPfRm-12" value="likely.i" style="edgeLabel;html=1;align=center;verticalAlign=middle;resizable=0;points=[];fontSize=14;" vertex="1" connectable="0" parent="n5mQFx3i5jvkbVbhPfRm-6">
          <mxGeometry x="0.233" y="-1" relative="1" as="geometry">
            <mxPoint x="-13" y="-17" as="offset" />
          </mxGeometry>
        </mxCell>
        <mxCell id="n5mQFx3i5jvkbVbhPfRm-7" value="" style="endArrow=classic;html=1;rounded=0;exitX=0.93;exitY=0.5;exitDx=0;exitDy=0;exitPerimeter=0;entryX=0;entryY=0.5;entryDx=0;entryDy=0;entryPerimeter=0;fontSize=14;" edge="1" parent="1" source="n5mQFx3i5jvkbVbhPfRm-3" target="n5mQFx3i5jvkbVbhPfRm-5">
          <mxGeometry width="50" height="50" relative="1" as="geometry">
            <mxPoint x="168" y="310" as="sourcePoint" />
            <mxPoint x="218" y="260" as="targetPoint" />
          </mxGeometry>
        </mxCell>
        <mxCell id="n5mQFx3i5jvkbVbhPfRm-14" value="likely.s" style="edgeLabel;html=1;align=center;verticalAlign=middle;resizable=0;points=[];fontSize=14;" vertex="1" connectable="0" parent="n5mQFx3i5jvkbVbhPfRm-7">
          <mxGeometry x="-0.3237" y="1" relative="1" as="geometry">
            <mxPoint x="14" y="-15" as="offset" />
          </mxGeometry>
        </mxCell>
        <mxCell id="n5mQFx3i5jvkbVbhPfRm-8" value="" style="endArrow=classic;html=1;rounded=0;entryX=0;entryY=0.5;entryDx=0;entryDy=0;entryPerimeter=0;fontSize=14;" edge="1" parent="1" source="n5mQFx3i5jvkbVbhPfRm-5" target="n5mQFx3i5jvkbVbhPfRm-4">
          <mxGeometry width="50" height="50" relative="1" as="geometry">
            <mxPoint x="185" y="310" as="sourcePoint" />
            <mxPoint x="235" y="260" as="targetPoint" />
          </mxGeometry>
        </mxCell>
        <mxCell id="n5mQFx3i5jvkbVbhPfRm-15" value="likely.o" style="edgeLabel;html=1;align=center;verticalAlign=middle;resizable=0;points=[];fontSize=14;" vertex="1" connectable="0" parent="n5mQFx3i5jvkbVbhPfRm-8">
          <mxGeometry x="0.1511" y="-1" relative="1" as="geometry">
            <mxPoint x="-12" y="-17" as="offset" />
          </mxGeometry>
        </mxCell>
        <mxCell id="n5mQFx3i5jvkbVbhPfRm-9" value="" style="endArrow=classic;html=1;rounded=0;entryX=0;entryY=0.5;entryDx=0;entryDy=0;entryPerimeter=0;fontSize=14;" edge="1" parent="1" target="n5mQFx3i5jvkbVbhPfRm-2">
          <mxGeometry width="50" height="50" relative="1" as="geometry">
            <mxPoint x="-250" y="200" as="sourcePoint" />
            <mxPoint x="200" y="260" as="targetPoint" />
          </mxGeometry>
        </mxCell>
        <mxCell id="n5mQFx3i5jvkbVbhPfRm-13" value="likely.c" style="edgeLabel;html=1;align=center;verticalAlign=middle;resizable=0;points=[];fontSize=14;" vertex="1" connectable="0" parent="n5mQFx3i5jvkbVbhPfRm-9">
          <mxGeometry x="-0.0914" y="1" relative="1" as="geometry">
            <mxPoint x="-2" y="-15" as="offset" />
          </mxGeometry>
        </mxCell>
        <mxCell id="n5mQFx3i5jvkbVbhPfRm-10" value="" style="endArrow=classic;html=1;rounded=0;exitX=0.93;exitY=0.5;exitDx=0;exitDy=0;exitPerimeter=0;fontSize=14;" edge="1" parent="1" source="n5mQFx3i5jvkbVbhPfRm-4">
          <mxGeometry width="50" height="50" relative="1" as="geometry">
            <mxPoint x="302" y="310" as="sourcePoint" />
            <mxPoint x="680" y="200" as="targetPoint" />
          </mxGeometry>
        </mxCell>
        <mxCell id="n5mQFx3i5jvkbVbhPfRm-16" value="likely" style="edgeLabel;html=1;align=center;verticalAlign=middle;resizable=0;points=[];fontSize=14;" vertex="1" connectable="0" parent="n5mQFx3i5jvkbVbhPfRm-10">
          <mxGeometry x="-0.0701" y="-4" relative="1" as="geometry">
            <mxPoint x="1" y="-14" as="offset" />
          </mxGeometry>
        </mxCell>
        <mxCell id="n5mQFx3i5jvkbVbhPfRm-17" value="源文件（文本）" style="text;html=1;strokeColor=none;fillColor=none;align=center;verticalAlign=middle;whiteSpace=wrap;rounded=0;fontSize=14;" vertex="1" parent="1">
          <mxGeometry x="-241" y="210" width="60" height="30" as="geometry" />
        </mxCell>
        <mxCell id="n5mQFx3i5jvkbVbhPfRm-18" value="被修改&lt;br style=&quot;font-size: 14px;&quot;&gt;的源程序（文本）" style="text;html=1;strokeColor=none;fillColor=none;align=center;verticalAlign=middle;whiteSpace=wrap;rounded=0;fontSize=14;" vertex="1" parent="1">
          <mxGeometry x="-35" y="215" width="60" height="30" as="geometry" />
        </mxCell>
        <mxCell id="n5mQFx3i5jvkbVbhPfRm-19" value="汇编程序（文本）" style="text;html=1;strokeColor=none;fillColor=none;align=center;verticalAlign=middle;whiteSpace=wrap;rounded=0;fontSize=14;" vertex="1" parent="1">
          <mxGeometry x="170" y="211" width="60" height="30" as="geometry" />
        </mxCell>
        <mxCell id="n5mQFx3i5jvkbVbhPfRm-20" value="可重定位&lt;br style=&quot;font-size: 14px;&quot;&gt;目标程序&lt;br style=&quot;font-size: 14px;&quot;&gt;（二进制）" style="text;html=1;strokeColor=none;fillColor=none;align=center;verticalAlign=middle;whiteSpace=wrap;rounded=0;fontSize=14;" vertex="1" parent="1">
          <mxGeometry x="366" y="218" width="80" height="30" as="geometry" />
        </mxCell>
        <mxCell id="n5mQFx3i5jvkbVbhPfRm-21" value="可执行&lt;br style=&quot;font-size: 14px;&quot;&gt;目标程序&lt;br style=&quot;font-size: 14px;&quot;&gt;（二进制）" style="text;html=1;strokeColor=none;fillColor=none;align=center;verticalAlign=middle;whiteSpace=wrap;rounded=0;fontSize=14;" vertex="1" parent="1">
          <mxGeometry x="578" y="219" width="80" height="30" as="geometry" />
        </mxCell>
        <mxCell id="n5mQFx3i5jvkbVbhPfRm-22" style="edgeStyle=orthogonalEdgeStyle;rounded=0;orthogonalLoop=1;jettySize=auto;html=1;exitX=0.5;exitY=1;exitDx=0;exitDy=0;fontSize=14;" edge="1" parent="1">
          <mxGeometry relative="1" as="geometry">
            <mxPoint x="591" y="240" as="sourcePoint" />
            <mxPoint x="591" y="240" as="targetPoint" />
          </mxGeometry>
        </mxCell>
        <mxCell id="n5mQFx3i5jvkbVbhPfRm-23" style="edgeStyle=orthogonalEdgeStyle;rounded=0;orthogonalLoop=1;jettySize=auto;html=1;exitX=0.5;exitY=1;exitDx=0;exitDy=0;fontSize=14;" edge="1" parent="1" source="n5mQFx3i5jvkbVbhPfRm-20" target="n5mQFx3i5jvkbVbhPfRm-20">
          <mxGeometry relative="1" as="geometry" />
        </mxCell>
      </root>
    </mxGraphModel>
  </diagram>
</mxfile>
